<svg id="Layer_1" xmlns="http://www.w3.org/2000/svg" xmlns:xlink="http://www.w3.org/1999/xlink" viewBox="0 0 164.7 53.9"><style>.st0{clip-path:url(#XMLID_67_);fill:url(#XMLID_68_);} .st1{clip-path:url(#XMLID_69_);fill:url(#XMLID_70_);} .st2{clip-path:url(#XMLID_71_);fill:url(#XMLID_72_);} .st3{clip-path:url(#XMLID_73_);fill:url(#XMLID_74_);} .st4{fill:#F9F9F9;} .st5{fill:#FFFFFF;}</style><path id="XMLID_49_" d="M164.7 46.6c0 4-3.3 7.3-7.3 7.3H7.3c-4 0-7.3-3.3-7.3-7.3V7.3C0 3.3 3.3 0 7.3 0h150.1c4 0 7.3 3.3 7.3 7.3v39.3z"/><g id="XMLID_119_"><defs><path id="XMLID_48_" d="M35.7 23.7l-7.4-4.3S14.8 11.6 14 11.1c-.8-.5-1.6-.2-1.6.8v33.7c0 .7.6 1 1.3.6.7-.4 14.7-8.5 14.7-8.5l7.4-4.3s6.3-3.6 7.1-4.1c.8-.5.8-1.1.1-1.5-.8-.3-7.3-4.1-7.3-4.1z"/></defs><clipPath id="XMLID_67_"><use xlink:href="#XMLID_48_" overflow="visible"/></clipPath><linearGradient id="XMLID_68_" gradientUnits="userSpaceOnUse" x1="21.547" y1="47.928" x2="21.547" y2="11.453" gradientTransform="matrix(1 0 0 -1 0 58.298)"><stop offset="0" stop-color="#257CB0"/><stop offset=".286" stop-color="#4A93B5"/><stop offset=".767" stop-color="#78BCBB"/><stop offset="1" stop-color="#89CFBD"/></linearGradient><path id="XMLID_47_" class="st0" d="M12.4 10.4v36.4l18.3-18.2z"/></g><g id="XMLID_116_"><defs><path id="XMLID_46_" d="M35.7 23.7l-7.4-4.3S14.8 11.6 14 11.1c-.8-.5-1.6-.2-1.6.8v33.7c0 .7.6 1 1.3.6.7-.4 14.7-8.5 14.7-8.5l7.4-4.3s6.3-3.6 7.1-4.1c.8-.5.8-1.1.1-1.5-.8-.3-7.3-4.1-7.3-4.1z"/></defs><clipPath id="XMLID_69_"><use xlink:href="#XMLID_46_" overflow="visible"/></clipPath><linearGradient id="XMLID_70_" gradientUnits="userSpaceOnUse" x1="12.351" y1="38.876" x2="35.684" y2="38.876" gradientTransform="matrix(1 0 0 -1 0 58.298)"><stop offset="0" stop-color="#52C1AD"/><stop offset="1" stop-color="#DEE89A"/></linearGradient><path id="XMLID_45_" class="st1" d="M35.7 23.7l-7.4-4.3-15.9-9.2v.2l18.3 18.2z"/></g><g id="XMLID_113_"><defs><path id="XMLID_44_" d="M35.7 23.7l-7.4-4.3S14.8 11.6 14 11.1c-.8-.5-1.6-.2-1.6.8v33.7c0 .7.6 1 1.3.6.7-.4 14.7-8.5 14.7-8.5l7.4-4.3s6.3-3.6 7.1-4.1c.8-.5.8-1.1.1-1.5-.8-.3-7.3-4.1-7.3-4.1z"/></defs><clipPath id="XMLID_71_"><use xlink:href="#XMLID_44_" overflow="visible"/></clipPath><linearGradient id="XMLID_72_" gradientUnits="userSpaceOnUse" x1="24.017" y1="29.69" x2="24.017" y2="11.32" gradientTransform="matrix(1 0 0 -1 0 58.298)"><stop offset="0" stop-color="#EC413D"/><stop offset=".167" stop-color="#DA4452"/><stop offset=".575" stop-color="#B0487A"/><stop offset=".862" stop-color="#954A92"/><stop offset="1" stop-color="#8A4A9D"/></linearGradient><path id="XMLID_43_" class="st2" d="M12.4 46.8v.2l15.9-9.2 7.4-4.3-5-4.9z"/></g><g id="XMLID_110_"><defs><path id="XMLID_42_" d="M35.7 23.7l-7.4-4.3S14.8 11.6 14 11.1c-.8-.5-1.6-.2-1.6.8v33.7c0 .7.6 1 1.3.6.7-.4 14.7-8.5 14.7-8.5l7.4-4.3s6.3-3.6 7.1-4.1c.8-.5.8-1.1.1-1.5-.8-.3-7.3-4.1-7.3-4.1z"/></defs><clipPath id="XMLID_73_"><use xlink:href="#XMLID_42_" overflow="visible"/></clipPath><linearGradient id="XMLID_74_" gradientUnits="userSpaceOnUse" x1="37.456" y1="34.589" x2="37.456" y2="24.792" gradientTransform="matrix(1 0 0 -1 0 58.298)"><stop offset="0" stop-color="#F58879"/><stop offset=".119" stop-color="#F69079"/><stop offset=".713" stop-color="#FCB877"/><stop offset="1" stop-color="#FEC874"/></linearGradient><path id="XMLID_41_" class="st3" d="M35.7 23.7l-5 4.9 5 4.9 8.5-4.9z"/></g><path id="XMLID_107_" class="st4" d="M128.1 35.7c-.7 0-1.3-.1-1.9-.4-.6-.3-1.1-.6-1.4-1.2h-.1c.1.6.1 1.2.1 1.8v4.4h-1.6V24.9h1.3l.2 1.5h.1c.4-.6.9-1 1.4-1.3.5-.3 1.2-.4 1.9-.4 1.4 0 2.5.5 3.3 1.4.8 1 1.1 2.3 1.1 4 0 1.7-.4 3.1-1.2 4.1-.7 1.1-1.8 1.5-3.2 1.5zm-.2-9.6c-1.1 0-1.9.3-2.4.9-.5.6-.7 1.6-.7 2.9v.4c0 1.5.2 2.6.7 3.2.5.6 1.3 1 2.4 1 .9 0 1.6-.4 2.2-1.1.5-.7.8-1.8.8-3.1s-.3-2.3-.8-3c-.5-.8-1.2-1.2-2.2-1.2z"/><path id="XMLID_38_" class="st4" d="M136.3 35.5h-1.6v-15h1.6v15z"/><path id="XMLID_103_" class="st4" d="M145.5 35.5l-.3-1.5h-.1c-.5.7-1.1 1.1-1.6 1.4-.5.2-1.2.4-2 .4-1.1 0-1.9-.3-2.5-.8-.6-.5-.9-1.3-.9-2.3 0-2.1 1.7-3.3 5.1-3.4l1.8-.1v-.7c0-.8-.2-1.4-.5-1.8-.4-.4-.9-.6-1.7-.6-.9 0-1.9.3-3 .8l-.5-1.2c.5-.3 1.1-.5 1.7-.7.6-.2 1.2-.2 1.9-.2 1.3 0 2.2.3 2.8.8.6.6.9 1.5.9 2.7v7.2h-1.1zm-3.6-1.1c1 0 1.8-.3 2.4-.8.6-.5.9-1.3.9-2.3v-1l-1.6.1c-1.3 0-2.2.2-2.8.6-.6.4-.8.9-.8 1.6 0 .6.2 1 .5 1.3.3.4.7.5 1.4.5z"/><path id="XMLID_35_" class="st4" d="M147.6 24.9h1.7l2.3 6c.5 1.4.8 2.4.9 3h.1c.1-.3.3-.9.5-1.7.3-.8 1.1-3.2 2.6-7.4h1.7L153 37c-.5 1.2-1 2-1.6 2.5-.6.5-1.3.7-2.2.7-.5 0-1-.1-1.5-.2v-1.3c.4.1.8.1 1.2.1 1.1 0 1.9-.6 2.4-1.9l.6-1.5-4.3-10.5z"/><path id="XMLID_97_" class="st4" d="M98.4 25.9c.5.4 1.6 1.3 1.6 3 0 1.6-.9 2.4-1.9 3.2-.3.3-.6.6-.6 1.1 0 .5.3.8.6 1l.8.6c1 .8 1.9 1.6 1.9 3.1 0 2.1-2 4.2-5.8 4.2-3.2 0-4.8-1.5-4.8-3.2 0-.8.4-1.9 1.7-2.7 1.4-.8 3.2-1 4.2-1-.3-.4-.7-.8-.7-1.5 0-.4.1-.6.2-.9h-.7c-2.4 0-3.7-1.8-3.7-3.5 0-1 .5-2.2 1.4-3 1.3-1 2.8-1.2 4-1.2h4.6l-1.4.8h-1.4zm-1.6 9.9h-.5c-.2 0-1.4 0-2.3.4-.5.2-1.9.7-1.9 2.3 0 1.6 1.5 2.7 3.9 2.7 2.1 0 3.3-1 3.3-2.4-.1-1.2-.8-1.8-2.5-3zm.7-4.2c.5-.6.5-1.3.5-1.7 0-1.6-1-4.1-2.8-4.1-.6 0-1.2.3-1.6.7-.4.5-.5 1.1-.5 1.6 0 1.5.9 3.9 2.8 3.9.6.2 1.2-.1 1.6-.4z"/><path id="XMLID_94_" class="st4" d="M84.4 35.4c-3.5 0-5.4-2.7-5.4-5.2 0-2.9 2.4-5.4 5.7-5.4 3.3 0 5.3 2.5 5.3 5.2 0 2.6-2 5.4-5.6 5.4zm2.8-1.8c.5-.7.7-1.6.7-2.5 0-1.9-.9-5.7-3.7-5.7-.7 0-1.5.3-2 .8-.9.8-1 1.7-1 2.7 0 2.2 1.1 5.8 3.8 5.8.8.1 1.7-.4 2.2-1.1z"/><path id="XMLID_91_" class="st4" d="M72.4 35.4c-3.5 0-5.4-2.7-5.4-5.2 0-2.9 2.4-5.4 5.7-5.4 3.3 0 5.3 2.5 5.3 5.2 0 2.6-2 5.4-5.6 5.4zm2.8-1.8c.5-.7.7-1.6.7-2.5 0-1.9-.9-5.7-3.7-5.7-.7 0-1.5.3-2 .8-.9.8-1 1.7-1 2.7 0 2.2 1.1 5.8 3.8 5.8.8.1 1.7-.4 2.2-1.1z"/><path id="XMLID_27_" class="st4" d="M65.3 35.1l-3.2.7c-1.3.2-2.4.4-3.7.4-6.1 0-8.5-4.5-8.5-8.1 0-4.3 3.3-8.3 9-8.3 1.2 0 2.4.2 3.4.5 1.7.5 2.4 1 2.9 1.4l-1.8 1.8-.8.2.6-.9c-.8-.7-2.1-2.1-4.8-2.1-3.5 0-6.2 2.7-6.2 6.6 0 4.2 3 8.1 7.9 8.1 1.4 0 2.2-.3 2.8-.6v-3.6l-3.4.2 1.8-1H66l-.6.6c-.2.1-.2.2-.2.4v1.1l.1 2.6z"/><path id="XMLID_26_" class="st4" d="M105.4 34.4c-.7-.1-.9-.2-.9-1.1V20.8v-.1c.1-.8.3-.9 1-1.3h-3.2l-1.7.8h1.7v13.7c0 .4-.1.5-.6 1.2h3.9l.8-.5c-.2-.1-.6-.1-1-.2z"/><path id="XMLID_86_" class="st4" d="M114.5 34.6c-.2.1-.5.3-.7.4-.7.3-1.5.4-2.1.4-.7 0-1.8 0-2.9-.9-1.6-1.1-2.3-3-2.3-4.7 0-3.4 2.8-5.1 5.1-5.1.8 0 1.6.2 2.3.6 1.1.7 1.4 1.7 1.5 2.2l-5.2 2.1-1.7.1c.6 2.8 2.5 4.4 4.6 4.4 1.1 0 1.9-.4 2.7-.8l-1.3 1.3zm-2.1-6.6c.4-.2.6-.3.6-.6 0-.9-1-1.9-2.2-1.9-.9 0-2.5.7-2.5 3.1 0 .4 0 .8.1 1.2l4-1.8z"/><g id="XMLID_83_"><path id="XMLID_23_" class="st4" d="M116.6 25v1.5h-.2V25h-.4v-.2h1.1v.2h-.5z"/><path id="XMLID_22_" class="st4" d="M118.6 26.4V25l-.4 1.5h-.2l-.5-1.5v1.5h-.2v-1.6h.3l.4 1.3.4-1.3h.3v1.6h-.1z"/></g><g id="XMLID_2_"><g id="XMLID_3_"><path id="XMLID_12_" class="st5" d="M50.4 9.3c0-2.2 1.7-3.7 3.7-3.7 1.4 0 2.3.7 2.8 1.5l-1 .6c-.4-.5-1.1-.9-1.8-.9-1.4 0-2.4 1.1-2.4 2.5s1.1 2.5 2.4 2.5c.7 0 1.3-.3 1.7-.6v-1.1h-2.1v-1H57v2.6c-.7.8-1.7 1.3-2.9 1.3-2-.1-3.7-1.5-3.7-3.7z"/><path id="XMLID_11_" class="st5" d="M58.5 12.7v-7h4.8v1.1h-3.6v1.8h3.5v1.1h-3.5v1.9h3.6v1.1h-4.8z"/><path id="XMLID_10_" class="st5" d="M66.7 12.7V6.8h-2.1v-1h5.5v1.1h-2.2v5.9h-1.2z"/><path id="XMLID_9_" class="st5" d="M74.4 12.7v-7h1.3v7h-1.3z"/><path id="XMLID_8_" class="st5" d="M79 12.7V6.8h-2.1v-1h5.5v1.1h-2.1v5.9H79z"/><path id="XMLID_5_" class="st5" d="M86.3 9.3c0-2.1 1.5-3.7 3.6-3.7s3.6 1.5 3.6 3.7S92 13 89.9 13c-2-.1-3.6-1.6-3.6-3.7zm6 0c0-1.5-.9-2.5-2.3-2.5s-2.3 1.1-2.3 2.5.9 2.5 2.3 2.5 2.3-1.1 2.3-2.5z"/><path id="XMLID_4_" class="st5" d="M99.9 12.7l-3.7-5v5H95v-7h1.3l3.6 4.8V5.8h1.3v7l-1.3-.1z"/></g></g></svg>